<svg width="0" height="0" fill="none" style="visibility: hidden; position: absolute;" aria-hidden="true">
    <symbol id="en" xmlns="http://www.w3.org/2000/svg" xmlns:svgjs="http://svgjs.com/svgjs" width="100%" height="100%" x="0" y="0" viewBox="0 0 473.677 473.677" style="enable-background:new 0 0 512 512" xml:space="preserve" class="">
        <g>
            <path d="M1.068 258.99h471.56v.007H1.068zM25.629 129.7h422.42v.007H25.629zM8.831 172.79h456v.007h-456zM101.793 431.36h270.095l.014-.015H101.778zM236.837 0c-4.652 0-9.267.168-13.848.43h27.699C246.103.168 241.489 0 236.837 0zM.978 215.89h471.71v.007H.978z" style="" fill="#c42126" data-original="#c42126"></path>
            <path d="M306.838 86.609H419.93c-13.433-16.353-29.045-30.829-46.341-43.084h-84.922c7.027 12.363 13.07 26.951 18.171 43.084z" style="" fill="#e7e7e7" data-original="#e7e7e7" class=""></path>
            <path d="M288.667 43.525h84.922C338.482 18.646 296.333 3.066 250.688.43h-7.292c21.484 2.704 31.352 18.604 45.271 43.095z" style="" fill="#dc3027" data-original="#dc3027" class=""></path>
            <path d="M464.846 172.794a235.273 235.273 0 0 0-16.798-43.084H317.94c2.636 13.833 4.716 28.282 6.256 43.084h140.65z" style="" fill="#e7e7e7" data-original="#e7e7e7" class=""></path>
            <path d="M310.622 129.703h137.422c-7.831-15.403-17.239-29.857-28.114-43.091H299.886c4.233 13.399 7.827 27.853 10.736 43.091z" style="" fill="#dc3027" data-original="#dc3027" class=""></path>
            <path d="M329.178 258.98h143.431c.681-7.288 1.066-14.674 1.066-22.138 0-7.064-.37-14.038-.976-20.949H329.212a644.79 644.79 0 0 1-.034 43.087z" style="" fill="#e7e7e7" data-original="#e7e7e7" class=""></path>
            <path d="M472.703 215.886a235.89 235.89 0 0 0-7.857-43.084H318.154c1.473 14.109 2.446 28.544 2.921 43.084h151.628z" style="" fill="#dc3027" data-original="#dc3027" class=""></path>
            <path d="M315.465 345.166h131.962a234.945 234.945 0 0 0 17.075-43.091H321.845c-1.571 14.824-3.703 29.27-6.38 43.091z" style="" fill="#e7e7e7" data-original="#e7e7e7" class=""></path>
            <path d="M464.506 302.072a235.37 235.37 0 0 0 8.107-43.084H324.709c-.505 14.551-1.507 28.982-3.01 43.084h142.807z" style="" fill="#dc3027" data-original="#dc3027" class=""></path>
            <path d="M371.902 431.345c17.546-12.206 33.379-26.697 47.025-43.084H307.806c-5.194 16.2-11.361 30.765-18.515 43.084h82.611z" style="" fill="#e7e7e7" data-original="#e7e7e7" class=""></path>
            <path d="M303.625 388.258h115.302c11.002-13.219 20.553-27.673 28.499-43.091h-132.93c-2.95 15.249-6.581 29.71-10.871 43.091zM228.254 473.509c-.479-.015-.957-.037-1.436-.052.479.014.958.037 1.436.052zM236.837 473.677c50.211 0 96.735-15.673 135.051-42.317h-85.715c-15.213 26.21-25.25 42.317-49.336 42.317z" style="" fill="#dc3027" data-original="#dc3027" class=""></path>
            <path d="M236.837 473.677c-2.876 0-5.733-.067-8.582-.168 2.879.097 5.739.168 8.582.168z" style="" fill="#c42126" data-original="#c42126"></path>
            <path d="M296.509 43.525H100.092C82.793 55.78 67.184 70.255 53.747 86.609h260.929c-5.101-16.133-11.14-30.721-18.167-43.084z" style="" fill="#f3f4f5" data-original="#f3f4f5" class=""></path>
            <path d="M100.092 43.525h196.417C282.587 19.034 264.88 3.134 243.396.43h-20.407c-45.645 2.636-87.794 18.216-122.897 43.095z" style="" fill="#e73625" data-original="#e73625" class=""></path>
            <path d="M8.835 172.794h322.83c-1.541-14.805-3.62-29.251-6.256-43.084H25.633a235.229 235.229 0 0 0-16.798 43.084z" style="" fill="#f3f4f5" data-original="#f3f4f5" class=""></path>
            <path d="M53.747 86.609C42.88 99.843 33.464 114.296 25.637 129.7h299.772c-2.906-15.235-6.499-29.688-10.733-43.091H53.747z" style="" fill="#e73625" data-original="#e73625" class=""></path>
            <path d="M.002 236.842c0 7.464.389 14.85 1.066 22.138h333.491c.494-14.323.501-28.754.034-43.084H.978c-.606 6.908-.976 13.882-.976 20.946z" style="" fill="#f3f4f5" data-original="#f3f4f5" class=""></path>
            <path d="M.978 215.886h333.611a608.368 608.368 0 0 0-2.921-43.084H8.831a235.592 235.592 0 0 0-7.853 43.084z" style="" fill="#e73625" data-original="#e73625" class=""></path>
            <path d="M331.549 302.072H9.175a235.116 235.116 0 0 0 17.075 43.091h298.919c2.678-13.818 4.805-28.264 6.38-43.091z" style="" fill="#f3f4f5" data-original="#f3f4f5" class=""></path>
            <path d="M9.175 302.072h322.374c1.5-14.102 2.505-28.537 3.01-43.084H1.068a235.66 235.66 0 0 0 8.107 43.084z" style="" fill="#e73625" data-original="#e73625" class=""></path>
            <path d="M101.778 431.345h194.009c7.154-12.322 13.324-26.884 18.515-43.084H54.753a238.109 238.109 0 0 0 47.025 43.084z" style="" fill="#f3f4f5" data-original="#f3f4f5" class=""></path>
            <path d="M26.254 345.166c7.947 15.418 17.497 29.872 28.499 43.091h259.549c4.286-13.38 7.917-27.841 10.867-43.091H26.254zM226.818 473.456c.479.015.957.037 1.436.052 2.85.101 5.707.168 8.582.168 24.087 0 43.727-16.106 58.943-42.317H101.793c35.747 24.862 78.655 40.164 125.025 42.097z" style="" fill="#e73625" data-original="#e73625" class=""></path>
            <path d="M231.941.123C110.574 2.592 11.654 96.301 1.008 215.5h230.937V.123h-.004z" style="" fill="#283991" data-original="#283991" class=""></path>
            <path d="m47.39 134.187 3.608 11.11h11.69l-9.457 6.87 3.612 11.118-9.453-6.874-9.45 6.874 3.605-11.118-9.454-6.87h11.69zM47.39 173.438l3.608 11.117h11.69l-9.457 6.87 3.612 11.118-9.453-6.874-9.45 6.874 3.605-11.118-9.454-6.87h11.69zM86.648 75.296l3.609 11.114h11.686l-9.454 6.874 3.609 11.11-9.45-6.866-9.454 6.866 3.609-11.11-9.458-6.874h11.69zM86.648 114.554l3.609 11.114h11.686l-9.454 6.866 3.609 11.118-9.45-6.866-9.454 6.866 3.609-11.118-9.458-6.866h11.69zM86.648 153.812l3.609 11.118h11.686l-9.454 6.862 3.609 11.118-9.45-6.873-9.454 6.873 3.609-11.118-9.458-6.862h11.69zM17.585 182.91l-3.612-11.118 9.454-6.866H11.744l-.262-.811a226.718 226.718 0 0 0-3.511 12.045l.165-.123 9.449 6.873zM37.94 124.027l9.45-6.873 9.454 6.873-3.612-11.118 9.454-6.873h-11.69l-3.609-11.11-3.609 11.11H39.47c-.8 1.212-1.574 2.431-2.352 3.661l4.428 3.212-3.606 11.118zM86.648 58.27l9.45 6.866-3.609-11.11 9.45-6.873h-6.75a235.186 235.186 0 0 0-16.578 13.608l-1.425 4.375 9.462-6.866zM116.452 45.511l9.454-6.873 9.45 6.873-3.609-11.118 9.45-6.866h-11.686l-.49-1.496c-3.96 2.023-7.879 4.128-11.709 6.368l2.745 1.993-3.605 11.119zM125.906 55.671l3.609 11.107h11.686l-9.454 6.873 3.609 11.118-9.45-6.874-9.454 6.874 3.609-11.118-9.457-6.873h11.689zM125.906 94.929l3.609 11.107h11.686l-9.454 6.873 3.609 11.118-9.45-6.874-9.454 6.874 3.609-11.118-9.457-6.873h11.689zM125.906 134.187l3.609 11.11h11.686l-9.454 6.87 3.609 11.118-9.45-6.874-9.454 6.874 3.609-11.118-9.457-6.87h11.689zM125.906 173.438l3.609 11.117h11.686l-9.454 6.87 3.609 11.118-9.45-6.874-9.454 6.874 3.609-11.118-9.457-6.87h11.689zM165.164 36.038l3.609 11.114h11.686l-9.45 6.874 3.605 11.11-9.45-6.866-9.457 6.866 3.612-11.11-9.457-6.874h11.689zM165.164 75.296l3.609 11.114h11.686l-9.45 6.874 3.605 11.11-9.45-6.866-9.457 6.866 3.612-11.11-9.457-6.874h11.689zM165.164 114.554l3.609 11.114h11.686l-9.45 6.866 3.605 11.118-9.45-6.866-9.457 6.866 3.612-11.118-9.457-6.866h11.689zM165.164 153.812l3.609 11.118h11.686l-9.45 6.862 3.605 11.118-9.45-6.873-9.457 6.873 3.612-11.118-9.457-6.862h11.689zM204.422 16.413l3.609 11.114h11.686l-9.454 6.866 3.609 11.118-9.45-6.874-9.457 6.874 3.612-11.118-9.457-6.866h11.686zM204.422 55.671l3.609 11.107h11.686l-9.454 6.873 3.609 11.118-9.45-6.874-9.457 6.874 3.612-11.118-9.457-6.873h11.686zM204.422 94.929l3.609 11.107h11.686l-9.454 6.873 3.609 11.118-9.45-6.874-9.457 6.874 3.612-11.118-9.457-6.873h11.686zM204.422 134.187l3.609 11.11h11.686l-9.454 6.87 3.609 11.118-9.45-6.874-9.457 6.874 3.612-11.118-9.457-6.87h11.686zM204.422 173.438l3.609 11.117h11.686l-9.454 6.87 3.609 11.118-9.45-6.874-9.457 6.874 3.612-11.118-9.457-6.87h11.686z" style="" fill="#efefef" data-original="#efefef" class=""></path>
        </g>
    </symbol>
    <symbol id="instagram" xmlns="http://www.w3.org/2000/svg" xmlns:svgjs="http://svgjs.com/svgjs" width="512" height="512" x="0" y="0" viewBox="0 0 152 152" style="enable-background:new 0 0 512 512" xml:space="preserve" class="">
        <g>
            <linearGradient id="a__instagram" x1="22.26" x2="129.74" y1="22.26" y2="129.74" gradientUnits="userSpaceOnUse">
                <stop offset="0" stop-color="#fae100"></stop>
                <stop offset=".15" stop-color="#fcb720"></stop>
                <stop offset=".3" stop-color="#ff7950"></stop>
                <stop offset=".5" stop-color="#ff1c74"></stop>
                <stop offset="1" stop-color="#6c1cd1"></stop>
            </linearGradient>
            <g data-name="Layer 2">
                <g data-name="03.Instagram">
                    <rect width="152" height="152" fill="url(#a__instagram)" rx="76" data-original="url(#a__instagram)" class=""></rect>
                    <g fill="#fff">
                        <path d="M133.2 26c-11.08 20.34-26.75 41.32-46.33 60.9S46.31 122.12 26 133.2q-1.91-1.66-3.71-3.46A76 76 0 1 1 129.74 22.26q1.8 1.8 3.46 3.74z" opacity=".1" fill="#ffffff" data-original="#ffffff" class=""></path>
                        <path d="M94 36H58a22 22 0 0 0-22 22v36a22 22 0 0 0 22 22h36a22 22 0 0 0 22-22V58a22 22 0 0 0-22-22zm15 54.84A18.16 18.16 0 0 1 90.84 109H61.16A18.16 18.16 0 0 1 43 90.84V61.16A18.16 18.16 0 0 1 61.16 43h29.68A18.16 18.16 0 0 1 109 61.16z" fill="#ffffff" data-original="#ffffff" class=""></path>
                        <path d="m90.59 61.56-.19-.19-.16-.16A20.16 20.16 0 0 0 76 55.33 20.52 20.52 0 0 0 55.62 76a20.75 20.75 0 0 0 6 14.61 20.19 20.19 0 0 0 14.42 6 20.73 20.73 0 0 0 14.55-35.05zM76 89.56A13.56 13.56 0 1 1 89.37 76 13.46 13.46 0 0 1 76 89.56zM102.43 54.38a4.88 4.88 0 0 1-4.85 4.92 4.81 4.81 0 0 1-3.42-1.43 4.93 4.93 0 0 1 3.43-8.39 4.82 4.82 0 0 1 3.09 1.12l.1.1a3.05 3.05 0 0 1 .44.44l.11.12a4.92 4.92 0 0 1 1.1 3.12z" fill="#ffffff" data-original="#ffffff" class=""></path>
                    </g>
                </g>
            </g>
        </g>
    </symbol>
    <symbol id="mastercard" width="41px" height="26px" viewBox="0 0 41 26" xmlns="http://www.w3.org/2000/svg">
        <g id="Page-1__mastercard" stroke="none" stroke-width="1" fill="none" fill-rule="evenodd">
            <g id="Artboard__mastercard" transform="translate(-1601.000000, -1029.000000)" fill-rule="nonzero">
                <g id="logo-for-twitter__mastercard" transform="translate(1601.000000, 1029.000000)">
                    <rect id="Rectangle-path__mastercard" fill="#F16022" x="14.8555565" y="3.20546585" width="10.9738588" height="19.720337"></rect>
                    <path d="M15.552378,13.0656343 C15.552378,9.06494954 17.4255622,5.50185835 20.3425211,3.20546488 C18.2092385,1.52608104 15.5175418,0.524081902 12.5919082,0.524081902 C5.6659065,0.524081902 0.0512633756,6.13910836 0.0512633756,13.0656362 C0.0512633756,19.9920565 5.6659065,25.6071867 12.5919082,25.6071867 C15.5175419,25.6071867 18.2092386,24.6051894 20.3425211,22.9258018 C17.4255622,20.6293066 15.552378,17.0663191 15.552378,13.0656343 Z" id="XMLID_107___mastercard" fill="#E91D25"></path>
                    <path d="M40.6337788,13.0656343 C40.6337788,19.9920565 35.0191339,25.6071868 28.0931302,25.6071868 C25.1675002,25.6071868 22.4758035,24.6051895 20.3425211,22.9258019 C23.2595466,20.6293066 25.1326272,17.0663192 25.1326272,13.0656343 C25.1326272,9.06494944 23.2595466,5.50185835 20.3425211,3.20546488 C22.4758036,1.52608104 25.1675003,0.524081902 28.0931302,0.524081902 C35.0191339,0.524081902 40.6337788,6.13910846 40.6337788,13.0656343 Z M39.4372441,20.8371118 L39.4372441,20.43338 L39.6000384,20.43338 L39.6000384,20.3511291 L39.1854354,20.3511291 L39.1854354,20.43338 L39.3483075,20.43338 L39.3483075,20.8371118 L39.4372441,20.8371118 Z M40.2421703,20.8371118 L40.2421703,20.3503291 L40.1150825,20.3503291 L39.9689044,20.6851518 L39.8226854,20.3503291 L39.6955311,20.3503291 L39.6955311,20.8371118 L39.7852751,20.8371118 L39.7852751,20.4699236 L39.9223599,20.7864966 L40.0154117,20.7864966 L40.1524965,20.4691236 L40.1524965,20.8371118 L40.2421703,20.8371118 Z" id="Shape__mastercard" fill="#F69E1E"></path>
                </g>
            </g>
        </g>
    </symbol>
    <symbol id="paypal" xmlns="http://www.w3.org/2000/svg" xmlns:svgjs="http://svgjs.com/svgjs" width="512" height="512" x="0" y="0" viewBox="0 0 504 504" style="enable-background:new 0 0 512 512" xml:space="preserve" class="">
        <g>
            <path d="M389.6 221.2h-27.2c-1.6 0-3.2 1.6-4 3.2l-11.2 70.4c0 1.6.8 2.4 2.4 2.4H364c1.6 0 2.4-.8 2.4-2.4l3.2-20c0-1.6 1.6-3.2 4-3.2h8.8c18.4 0 28.8-8.8 31.2-26.4 1.6-7.2 0-13.6-3.2-17.6-4.8-4-12-6.4-20.8-6.4m3.2 26.4c-1.6 9.6-8.8 9.6-16 9.6H372l3.2-18.4c0-.8.8-1.6 2.4-1.6h1.6c4.8 0 9.6 0 12 3.2 1.6.8 1.6 3.2 1.6 7.2" style="" fill="#139ad6" data-original="#139ad6" class=""></path>
            <path d="M193.6 221.2h-27.2c-1.6 0-3.2 1.6-4 3.2l-11.2 70.4c0 1.6.8 2.4 2.4 2.4h12.8c1.6 0 3.2-1.6 4-3.2l3.2-19.2c0-1.6 1.6-3.2 4-3.2h8.8c18.4 0 28.8-8.8 31.2-26.4 1.6-7.2 0-13.6-3.2-17.6-4.8-4-11.2-6.4-20.8-6.4m3.2 26.4c-1.6 9.6-8.8 9.6-16 9.6h-4l3.2-18.4c0-.8.8-1.6 2.4-1.6h1.6c4.8 0 9.6 0 12 3.2.8.8 1.6 3.2.8 7.2M276 246.8h-12.8c-.8 0-2.4.8-2.4 1.6l-.8 4-.8-1.6c-3.2-4-8.8-5.6-15.2-5.6-14.4 0-27.2 11.2-29.6 26.4-1.6 8 .8 15.2 4.8 20s9.6 6.4 16.8 6.4c12 0 18.4-7.2 18.4-7.2l-.8 4c0 1.6.8 2.4 2.4 2.4h12c1.6 0 3.2-1.6 4-3.2l7.2-44.8c-.8-.8-2.4-2.4-3.2-2.4m-18.4 25.6c-1.6 7.2-7.2 12.8-15.2 12.8-4 0-7.2-1.6-8.8-3.2-1.6-2.4-2.4-5.6-2.4-9.6.8-7.2 7.2-12.8 14.4-12.8 4 0 6.4 1.6 8.8 3.2 2.4 2.4 3.2 6.4 3.2 9.6" style="" fill="#263b80" data-original="#263b80" class=""></path>
            <path d="M471.2 246.8h-12.8c-.8 0-2.4.8-2.4 1.6l-.8 4-.8-1.6c-3.2-4-8.8-5.6-15.2-5.6-14.4 0-27.2 11.2-29.6 26.4-1.6 8 .8 15.2 4.8 20s9.6 6.4 16.8 6.4c12 0 18.4-7.2 18.4-7.2l-.8 4c0 1.6.8 2.4 2.4 2.4h12c1.6 0 3.2-1.6 4-3.2l7.2-44.8c-.8-.8-1.6-2.4-3.2-2.4m-18.4 25.6c-1.6 7.2-7.2 12.8-15.2 12.8-4 0-7.2-1.6-8.8-3.2-1.6-2.4-2.4-5.6-2.4-9.6.8-7.2 7.2-12.8 14.4-12.8 4 0 6.4 1.6 8.8 3.2 3.2 2.4 4 6.4 3.2 9.6" style="" fill="#139ad6" data-original="#139ad6" class=""></path>
            <path d="M345.6 246.8H332c-1.6 0-2.4.8-3.2 1.6l-17.6 27.2-8-25.6c-.8-1.6-1.6-2.4-4-2.4h-12.8c-1.6 0-2.4 1.6-2.4 3.2l14.4 42.4-13.6 19.2c-.8 1.6 0 4 1.6 4h12.8c1.6 0 2.4-.8 3.2-1.6l44-63.2c2.4-2.4.8-4.8-.8-4.8" style="" fill="#263b80" data-original="#263b80" class=""></path>
            <path d="m486.4 223.6-11.2 72c0 1.6.8 2.4 2.4 2.4h11.2c1.6 0 3.2-1.6 4-3.2l11.2-70.4c0-1.6-.8-2.4-2.4-2.4h-12.8c-.8-.8-1.6 0-2.4 1.6" style="" fill="#139ad6" data-original="#139ad6" class=""></path>
            <path d="M92 197.2c-5.6-6.4-16-9.6-30.4-9.6h-40c-2.4 0-4.8 2.4-5.6 4.8L0 297.2c0 2.4 1.6 4 3.2 4H28l6.4-39.2v1.6c.8-2.4 3.2-4.8 5.6-4.8h12c23.2 0 40.8-9.6 46.4-36v-2.4c-.8 0-.8 0 0 0 .8-10.4-.8-16.8-6.4-23.2" style="" fill="#263b80" data-original="#263b80" class=""></path>
            <path d="M97.6 220.4v2.4c-5.6 27.2-23.2 36-46.4 36h-12c-2.4 0-4.8 2.4-5.6 4.8l-8 48.8c0 1.6.8 3.2 3.2 3.2h20.8c2.4 0 4.8-1.6 4.8-4v-.8l4-24.8v-1.6c0-2.4 2.4-4 4.8-4h3.2c20 0 36-8 40-32 1.6-9.6.8-18.4-4-24-.8-1.6-2.4-3.2-4.8-4" style="" fill="#139ad6" data-original="#139ad6" class=""></path>
            <path d="M92 218c-.8 0-1.6-.8-2.4-.8s-1.6 0-2.4-.8c-3.2-.8-6.4-.8-10.4-.8H45.6c-.8 0-1.6 0-2.4.8-1.6.8-2.4 2.4-2.4 4L34.4 262v1.6c.8-2.4 3.2-4.8 5.6-4.8h12c23.2 0 40.8-9.6 46.4-36 0-.8 0-1.6.8-2.4-1.6-.8-2.4-1.6-4-1.6-2.4-.8-2.4-.8-3.2-.8" style="" fill="#232c65" data-original="#232c65" class=""></path>
        </g>
    </symbol>
    <symbol id="react" xmlns="http://www.w3.org/2000/svg" aria-hidden="true" role="img" class="iconify iconify--logos" width="35.93" height="32" preserveAspectRatio="xMidYMid meet" viewBox="0 0 256 228">
        <path fill="#00D8FF" d="M210.483 73.824a171.49 171.49 0 0 0-8.24-2.597c.465-1.9.893-3.777 1.273-5.621c6.238-30.281 2.16-54.676-11.769-62.708c-13.355-7.7-35.196.329-57.254 19.526a171.23 171.23 0 0 0-6.375 5.848a155.866 155.866 0 0 0-4.241-3.917C100.759 3.829 77.587-4.822 63.673 3.233C50.33 10.957 46.379 33.89 51.995 62.588a170.974 170.974 0 0 0 1.892 8.48c-3.28.932-6.445 1.924-9.474 2.98C17.309 83.498 0 98.307 0 113.668c0 15.865 18.582 31.778 46.812 41.427a145.52 145.52 0 0 0 6.921 2.165a167.467 167.467 0 0 0-2.01 9.138c-5.354 28.2-1.173 50.591 12.134 58.266c13.744 7.926 36.812-.22 59.273-19.855a145.567 145.567 0 0 0 5.342-4.923a168.064 168.064 0 0 0 6.92 6.314c21.758 18.722 43.246 26.282 56.54 18.586c13.731-7.949 18.194-32.003 12.4-61.268a145.016 145.016 0 0 0-1.535-6.842c1.62-.48 3.21-.974 4.76-1.488c29.348-9.723 48.443-25.443 48.443-41.52c0-15.417-17.868-30.326-45.517-39.844Zm-6.365 70.984c-1.4.463-2.836.91-4.3 1.345c-3.24-10.257-7.612-21.163-12.963-32.432c5.106-11 9.31-21.767 12.459-31.957c2.619.758 5.16 1.557 7.61 2.4c23.69 8.156 38.14 20.213 38.14 29.504c0 9.896-15.606 22.743-40.946 31.14Zm-10.514 20.834c2.562 12.94 2.927 24.64 1.23 33.787c-1.524 8.219-4.59 13.698-8.382 15.893c-8.067 4.67-25.32-1.4-43.927-17.412a156.726 156.726 0 0 1-6.437-5.87c7.214-7.889 14.423-17.06 21.459-27.246c12.376-1.098 24.068-2.894 34.671-5.345a134.17 134.17 0 0 1 1.386 6.193ZM87.276 214.515c-7.882 2.783-14.16 2.863-17.955.675c-8.075-4.657-11.432-22.636-6.853-46.752a156.923 156.923 0 0 1 1.869-8.499c10.486 2.32 22.093 3.988 34.498 4.994c7.084 9.967 14.501 19.128 21.976 27.15a134.668 134.668 0 0 1-4.877 4.492c-9.933 8.682-19.886 14.842-28.658 17.94ZM50.35 144.747c-12.483-4.267-22.792-9.812-29.858-15.863c-6.35-5.437-9.555-10.836-9.555-15.216c0-9.322 13.897-21.212 37.076-29.293c2.813-.98 5.757-1.905 8.812-2.773c3.204 10.42 7.406 21.315 12.477 32.332c-5.137 11.18-9.399 22.249-12.634 32.792a134.718 134.718 0 0 1-6.318-1.979Zm12.378-84.26c-4.811-24.587-1.616-43.134 6.425-47.789c8.564-4.958 27.502 2.111 47.463 19.835a144.318 144.318 0 0 1 3.841 3.545c-7.438 7.987-14.787 17.08-21.808 26.988c-12.04 1.116-23.565 2.908-34.161 5.309a160.342 160.342 0 0 1-1.76-7.887Zm110.427 27.268a347.8 347.8 0 0 0-7.785-12.803c8.168 1.033 15.994 2.404 23.343 4.08c-2.206 7.072-4.956 14.465-8.193 22.045a381.151 381.151 0 0 0-7.365-13.322Zm-45.032-43.861c5.044 5.465 10.096 11.566 15.065 18.186a322.04 322.04 0 0 0-30.257-.006c4.974-6.559 10.069-12.652 15.192-18.18ZM82.802 87.83a323.167 323.167 0 0 0-7.227 13.238c-3.184-7.553-5.909-14.98-8.134-22.152c7.304-1.634 15.093-2.97 23.209-3.984a321.524 321.524 0 0 0-7.848 12.897Zm8.081 65.352c-8.385-.936-16.291-2.203-23.593-3.793c2.26-7.3 5.045-14.885 8.298-22.6a321.187 321.187 0 0 0 7.257 13.246c2.594 4.48 5.28 8.868 8.038 13.147Zm37.542 31.03c-5.184-5.592-10.354-11.779-15.403-18.433c4.902.192 9.899.29 14.978.29c5.218 0 10.376-.117 15.453-.343c-4.985 6.774-10.018 12.97-15.028 18.486Zm52.198-57.817c3.422 7.8 6.306 15.345 8.596 22.52c-7.422 1.694-15.436 3.058-23.88 4.071a382.417 382.417 0 0 0 7.859-13.026a347.403 347.403 0 0 0 7.425-13.565Zm-16.898 8.101a358.557 358.557 0 0 1-12.281 19.815a329.4 329.4 0 0 1-23.444.823c-7.967 0-15.716-.248-23.178-.732a310.202 310.202 0 0 1-12.513-19.846h.001a307.41 307.41 0 0 1-10.923-20.627a310.278 310.278 0 0 1 10.89-20.637l-.001.001a307.318 307.318 0 0 1 12.413-19.761c7.613-.576 15.42-.876 23.31-.876H128c7.926 0 15.743.303 23.354.883a329.357 329.357 0 0 1 12.335 19.695a358.489 358.489 0 0 1 11.036 20.54a329.472 329.472 0 0 1-11 20.722Zm22.56-122.124c8.572 4.944 11.906 24.881 6.52 51.026c-.344 1.668-.73 3.367-1.15 5.09c-10.622-2.452-22.155-4.275-34.23-5.408c-7.034-10.017-14.323-19.124-21.64-27.008a160.789 160.789 0 0 1 5.888-5.4c18.9-16.447 36.564-22.941 44.612-18.3ZM128 90.808c12.625 0 22.86 10.235 22.86 22.86s-10.235 22.86-22.86 22.86s-22.86-10.235-22.86-22.86s10.235-22.86 22.86-22.86Z"></path>
    </symbol>
    <symbol id="telegram" xmlns="http://www.w3.org/2000/svg" xmlns:svgjs="http://svgjs.com/svgjs" width="512" height="512" x="0" y="0" viewBox="0 0 512 512" style="enable-background:new 0 0 512 512" xml:space="preserve" class="">
        <g>
            <linearGradient id="a__telegram" x1="-1980.761" x2="-1980.761" y1="6242.157" y2="6241.649" gradientTransform="matrix(1000 0 0 -1000 1981017 6242157)" gradientUnits="userSpaceOnUse">
                <stop offset="0" stop-color="#2aabee"></stop>
                <stop offset="1" stop-color="#229ed9"></stop>
            </linearGradient>
            <g fill-rule="evenodd" clip-rule="evenodd">
                <circle cx="256" cy="256" r="256" fill="url(#a__telegram)" data-original="url(#a__telegram)" class=""></circle>
                <path fill="#ffffff" d="M115.88 253.298c74.629-32.515 124.394-53.951 149.293-64.307 71.094-29.57 85.867-34.707 95.495-34.877 2.118-.037 6.853.488 9.92 2.977 4.55 3.692 4.576 11.706 4.071 17.01-3.853 40.48-20.523 138.713-29.004 184.051-3.589 19.184-10.655 25.617-17.495 26.246-14.866 1.368-26.155-9.825-40.554-19.263-22.531-14.77-35.26-23.964-57.131-38.376-25.275-16.656-8.89-25.81 5.514-40.771 3.77-3.915 69.271-63.494 70.539-68.899.159-.676.306-3.196-1.191-4.526s-3.706-.876-5.3-.514c-2.26.513-38.254 24.304-107.982 71.372-10.217 7.016-19.471 10.434-27.762 10.255-9.141-.197-26.723-5.168-39.794-9.417-16.032-5.211-28.774-7.967-27.664-16.817.578-4.611 6.926-9.325 19.045-14.144z" data-original="#ffffff"></path>
            </g>
        </g>
    </symbol>
    <symbol id="ua" xmlns="http://www.w3.org/2000/svg" xmlns:svgjs="http://svgjs.com/svgjs" width="512" height="512" x="0" y="0" viewBox="0 0 512 512" style="enable-background:new 0 0 512 512" xml:space="preserve" class="">
        <g>
            <circle cx="256" cy="256" r="256" fill="#ffda44" data-original="#ffda44"></circle>
            <path fill="#338af3" d="M0 256C0 114.616 114.616 0 256 0s256 114.616 256 256" data-original="#338af3" class=""></path>
        </g>
    </symbol>
    <symbol id="visa" xmlns="http://www.w3.org/2000/svg" xmlns:svgjs="http://svgjs.com/svgjs" width="512" height="512" x="0" y="0" viewBox="0 0 512 512" style="enable-background:new 0 0 512 512" xml:space="preserve" class="">
        <g>
            <path d="m194.403 176.227-67.021 159.926H83.638L50.68 208.536c-2.029-7.871-3.763-10.734-9.847-14.076-9.966-5.388-26.359-10.443-40.833-13.59l1.013-4.642h70.379c8.976 0 17.046 5.987 19.075 16.308l17.427 92.562 43.044-108.87h43.465zm171.346 107.688c.194-42.186-58.373-44.482-57.952-63.355.114-5.761 5.574-11.857 17.532-13.396 5.938-.79 22.279-1.369 40.8 7.134l7.259-33.898c-9.965-3.617-22.774-7.081-38.694-7.081-40.889 0-69.674 21.749-69.917 52.868-.268 23.013 20.537 35.854 36.23 43.518 16.114 7.842 21.502 12.849 21.445 19.882-.106 10.734-12.857 15.425-24.751 15.636-20.805.324-32.872-5.622-42.509-10.11l-7.49 35.063c9.652 4.432 27.525 8.28 46.021 8.507 43.459-.002 71.889-21.519 72.026-54.768m107.979 52.239H512l-33.395-159.926h-35.331c-7.939 0-14.632 4.63-17.613 11.723l-62.042 148.203h43.425l8.62-23.884h53.082l4.982 23.884zm-46.164-56.663 21.785-60.049 12.533 60.049h-34.318zM253.525 176.227l-34.23 159.926h-41.379l34.238-159.926h41.371z" fill="#000000" data-original="#000000" class=""></path>
        </g>
    </symbol>
</svg>